<svg width="202" height="45" viewBox="9063 1648 202 45" xmlns="http://www.w3.org/2000/svg"><g fill="#87172D" fill-rule="evenodd"><path d="M9200.842 1681.158c.502 6.325 5.785 11.305 12.24 11.305 3.402 0 6.482-1.382 8.709-3.615l-7.72-7.69h-13.229zm21.883 0v11.305h22.122l-11.349-11.305h-10.773zm29.184 11.305c6.455 0 11.738-4.98 12.241-11.305h-24.483c.505 6.325 5.787 11.305 12.242 11.305zm-82.408-11.305h-16.146v11.305h16.146a5.654 5.654 0 0 0 0-11.305zm7.449 11.305l12.357-3.985v3.985h9.833v-11.305h-22.19v11.305zm67.897-24.576h-12.29v-4.75h-9.832v16.054h10.775l11.347-11.304zm-75.346 0h-16.146v11.304h16.146a5.653 5.653 0 0 0 0-11.304zm70.166 11.304h24.483c-.501-6.324-5.786-11.304-12.241-11.304s-11.74 4.98-12.242 11.304zm-17.878-7.69a12.255 12.255 0 0 0-8.706-3.614c-6.456 0-11.74 4.98-12.24 11.304h13.229l7.717-7.69zm-35.006-3.614h-9.833v11.304h22.19v-11.304l-12.357 3.984v-3.984zM9134.671 1670.236l-14.56-.004-13.9 22.231h28.46c6.139 0 11.113-4.977 11.113-11.114 0-6.139-4.974-11.113-11.113-11.113"/><path d="M9135.905 1648h-22.273l-12.357 19.866h-2.912l12.356-19.866H9063v19.866h21.783l18.536 24.597 15.415-24.597h17.171c5.456 0 9.88-4.447 9.88-9.912 0-5.467-4.424-9.954-9.88-9.954"/></g></svg>